{
  "asset": {
    "version": "2.0",
    "generator": "babylon.js glTF exporter for 3dsmax 2023 v20240312.5"
  },
  "scene": 0,
  "scenes": [
    {
      "nodes": [
        0
      ]
    }
  ],
  "nodes": [
    {
      "mesh": 0,
      "translation": [
        2861.44238,
        13.2857094,
        18.4521179
      ],
      "name": "玻璃8885ad4"
    }
  ],
  "meshes": [
    {
      "primitives": [
        {
          "attributes": {
            "POSITION": 1,
            "NORMAL": 2,
            "COLOR_0": 3,
            "TEXCOORD_0": 4
          },
          "indices": 0,
          "material": 0
        },
        {
          "attributes": {
            "POSITION": 6,
            "NORMAL": 7,
            "COLOR_0": 8,
            "TEXCOORD_0": 9
          },
          "indices": 5,
          "material": 1
        },
        {
          "attributes": {
            "POSITION": 11,
            "NORMAL": 12,
            "COLOR_0": 13,
            "TEXCOORD_0": 14
          },
          "indices": 10,
          "material": 2
        },
        {
          "attributes": {
            "POSITION": 16,
            "NORMAL": 17,
            "COLOR_0": 18,
            "TEXCOORD_0": 19
          },
          "indices": 15,
          "material": 3
        }
      ],
      "name": "玻璃8885ad4"
    }
  ],
  "accessors": [
    {
      "bufferView": 0,
      "componentType": 5123,
      "count": 1896,
      "type": "SCALAR",
      "name": "accessorIndices"
    },
    {
      "bufferView": 1,
      "componentType": 5126,
      "count": 800,
      "max": [
        120.540771,
        80.25527,
        22.5065
      ],
      "min": [
        -120.540894,
        0.0,
        -22.5125427
      ],
      "type": "VEC3",
      "name": "accessorPositions"
    },
    {
      "bufferView": 1,
      "byteOffset": 9600,
      "componentType": 5126,
      "count": 800,
      "type": "VEC3",
      "name": "accessorNormals"
    },
    {
      "bufferView": 2,
      "componentType": 5126,
      "count": 800,
      "type": "VEC4",
      "name": "accessorColors"
    },
    {
      "bufferView": 3,
      "componentType": 5126,
      "count": 800,
      "type": "VEC2",
      "name": "accessorUVs"
    },
    {
      "bufferView": 0,
      "byteOffset": 3792,
      "componentType": 5123,
      "count": 2472,
      "type": "SCALAR",
      "name": "accessorIndices"
    },
    {
      "bufferView": 1,
      "byteOffset": 19200,
      "componentType": 5126,
      "count": 928,
      "max": [
        120.540955,
        81.2257462,
        20.1691589
      ],
      "min": [
        -120.540161,
        14.6501427,
        -20.1704712
      ],
      "type": "VEC3",
      "name": "accessorPositions"
    },
    {
      "bufferView": 1,
      "byteOffset": 30336,
      "componentType": 5126,
      "count": 928,
      "type": "VEC3",
      "name": "accessorNormals"
    },
    {
      "bufferView": 2,
      "byteOffset": 12800,
      "componentType": 5126,
      "count": 928,
      "type": "VEC4",
      "name": "accessorColors"
    },
    {
      "bufferView": 3,
      "byteOffset": 6400,
      "componentType": 5126,
      "count": 928,
      "type": "VEC2",
      "name": "accessorUVs"
    },
    {
      "bufferView": 0,
      "byteOffset": 8736,
      "componentType": 5123,
      "count": 24528,
      "type": "SCALAR",
      "name": "accessorIndices"
    },
    {
      "bufferView": 1,
      "byteOffset": 41472,
      "componentType": 5126,
      "count": 13912,
      "max": [
        121.371094,
        82.06344,
        23.4319153
      ],
      "min": [
        -121.371033,
        4.238182,
        -23.4319153
      ],
      "type": "VEC3",
      "name": "accessorPositions"
    },
    {
      "bufferView": 1,
      "byteOffset": 208416,
      "componentType": 5126,
      "count": 13912,
      "type": "VEC3",
      "name": "accessorNormals"
    },
    {
      "bufferView": 2,
      "byteOffset": 27648,
      "componentType": 5126,
      "count": 13912,
      "type": "VEC4",
      "name": "accessorColors"
    },
    {
      "bufferView": 3,
      "byteOffset": 13824,
      "componentType": 5126,
      "count": 13912,
      "type": "VEC2",
      "name": "accessorUVs"
    },
    {
      "bufferView": 0,
      "byteOffset": 57792,
      "componentType": 5123,
      "count": 13152,
      "type": "SCALAR",
      "name": "accessorIndices"
    },
    {
      "bufferView": 1,
      "byteOffset": 375360,
      "componentType": 5126,
      "count": 5856,
      "max": [
        121.231567,
        14.7925339,
        20.8595276
      ],
      "min": [
        -121.230774,
        0.0256958,
        -20.8615417
      ],
      "type": "VEC3",
      "name": "accessorPositions"
    },
    {
      "bufferView": 1,
      "byteOffset": 445632,
      "componentType": 5126,
      "count": 5856,
      "type": "VEC3",
      "name": "accessorNormals"
    },
    {
      "bufferView": 2,
      "byteOffset": 250240,
      "componentType": 5126,
      "count": 5856,
      "type": "VEC4",
      "name": "accessorColors"
    },
    {
      "bufferView": 3,
      "byteOffset": 125120,
      "componentType": 5126,
      "count": 5856,
      "type": "VEC2",
      "name": "accessorUVs"
    }
  ],
  "bufferViews": [
    {
      "buffer": 0,
      "byteLength": 84096,
      "name": "bufferViewScalar"
    },
    {
      "buffer": 0,
      "byteOffset": 84096,
      "byteLength": 515904,
      "byteStride": 12,
      "name": "bufferViewFloatVec3"
    },
    {
      "buffer": 0,
      "byteOffset": 600000,
      "byteLength": 343936,
      "byteStride": 16,
      "name": "bufferViewFloatVec4"
    },
    {
      "buffer": 0,
      "byteOffset": 943936,
      "byteLength": 171968,
      "byteStride": 8,
      "name": "bufferViewFloatVec2"
    }
  ],
  "buffers": [
    {
      "uri": "04.bin",
      "byteLength": 1115904
    }
  ],
  "materials": [
    {
      "pbrMetallicRoughness": {
        "baseColorFactor": [
          0.223529428,
          0.345098048,
          0.427451,
          1.0
        ],
        "metallicFactor": 0.0,
        "roughnessFactor": 0.267846435
      },
      "name": "玻璃8885ad"
    },
    {
      "pbrMetallicRoughness": {
        "baseColorFactor": [
          0.8745099,
          0.8745099,
          0.8745099,
          1.0
        ],
        "metallicFactor": 0.0,
        "roughnessFactor": 0.450053632
      },
      "name": "楼板",
      "extras": {
        "KP_MatSequ": 10,
        "KP_MatExtr": 200.0,
        "KP_MatCaps": true
      }
    },
    {
      "pbrMetallicRoughness": {
        "baseColorFactor": [
          0.5529412,
          0.549019635,
          0.454902,
          1.0
        ],
        "metallicFactor": 0.0,
        "roughnessFactor": 0.450053632
      },
      "name": "樯4"
    },
    {
      "pbrMetallicRoughness": {
        "baseColorFactor": [
          0.6431373,
          0.533333361,
          0.4784314,
          1.0
        ],
        "metallicFactor": 0.0,
        "roughnessFactor": 0.450053632
      },
      "name": "灰黄墙"
    }
  ]
}