{
  "asset": {
    "version": "2.0",
    "generator": "babylon.js glTF exporter for 3dsmax 2023 v20240312.5"
  },
  "scene": 0,
  "scenes": [
    {
      "nodes": [
        0
      ]
    }
  ],
  "nodes": [
    {
      "mesh": 0,
      "translation": [
        88.8051,
        6.095999,
        32.0132675
      ],
      "name": "MAIN_BUILDING_3F_桌椅"
    }
  ],
  "meshes": [
    {
      "primitives": [
        {
          "attributes": {
            "POSITION": 1,
            "NORMAL": 2,
            "TEXCOORD_0": 3
          },
          "indices": 0,
          "material": 0
        },
        {
          "attributes": {
            "POSITION": 5,
            "NORMAL": 6,
            "TEXCOORD_0": 7
          },
          "indices": 4,
          "material": 1
        },
        {
          "attributes": {
            "POSITION": 9,
            "NORMAL": 10,
            "TEXCOORD_0": 11
          },
          "indices": 8,
          "material": 2
        },
        {
          "attributes": {
            "POSITION": 13,
            "NORMAL": 14,
            "TEXCOORD_0": 15
          },
          "indices": 12,
          "material": 3
        }
      ],
      "name": "MAIN_BUILDING_3F_桌椅"
    }
  ],
  "accessors": [
    {
      "bufferView": 0,
      "componentType": 5123,
      "count": 23232,
      "type": "SCALAR",
      "name": "accessorIndices"
    },
    {
      "bufferView": 1,
      "componentType": 5126,
      "count": 8448,
      "max": [
        12.6339617,
        0.533403933,
        5.99636555
      ],
      "min": [
        -10.0796652,
        6.103516E-08,
        -5.99636745
      ],
      "type": "VEC3",
      "name": "accessorPositions"
    },
    {
      "bufferView": 1,
      "byteOffset": 101376,
      "componentType": 5126,
      "count": 8448,
      "type": "VEC3",
      "name": "accessorNormals"
    },
    {
      "bufferView": 2,
      "componentType": 5126,
      "count": 8448,
      "type": "VEC2",
      "name": "accessorUVs"
    },
    {
      "bufferView": 0,
      "byteOffset": 46464,
      "componentType": 5123,
      "count": 360,
      "type": "SCALAR",
      "name": "accessorIndices"
    },
    {
      "bufferView": 1,
      "byteOffset": 202752,
      "componentType": 5126,
      "count": 240,
      "max": [
        12.0062466,
        0.8540028,
        5.080715
      ],
      "min": [
        -1.88617194,
        0.004002762,
        -5.12116432
      ],
      "type": "VEC3",
      "name": "accessorPositions"
    },
    {
      "bufferView": 1,
      "byteOffset": 205632,
      "componentType": 5126,
      "count": 240,
      "type": "VEC3",
      "name": "accessorNormals"
    },
    {
      "bufferView": 2,
      "byteOffset": 67584,
      "componentType": 5126,
      "count": 240,
      "type": "VEC2",
      "name": "accessorUVs"
    },
    {
      "bufferView": 0,
      "byteOffset": 47184,
      "componentType": 5123,
      "count": 96396,
      "type": "SCALAR",
      "name": "accessorIndices"
    },
    {
      "bufferView": 1,
      "byteOffset": 208512,
      "componentType": 5126,
      "count": 16192,
      "max": [
        12.78616,
        2.399506,
        5.98172331
      ],
      "min": [
        -12.7861624,
        0.51570946,
        -5.971769
      ],
      "type": "VEC3",
      "name": "accessorPositions"
    },
    {
      "bufferView": 1,
      "byteOffset": 402816,
      "componentType": 5126,
      "count": 16192,
      "type": "VEC3",
      "name": "accessorNormals"
    },
    {
      "bufferView": 2,
      "byteOffset": 69504,
      "componentType": 5126,
      "count": 16192,
      "type": "VEC2",
      "name": "accessorUVs"
    },
    {
      "bufferView": 0,
      "byteOffset": 239976,
      "componentType": 5123,
      "count": 12,
      "type": "SCALAR",
      "name": "accessorIndices"
    },
    {
      "bufferView": 1,
      "byteOffset": 597120,
      "componentType": 5126,
      "count": 8,
      "max": [
        5.072748,
        2.35853839,
        5.528038
      ],
      "min": [
        -12.747427,
        0.940473557,
        -5.64002657
      ],
      "type": "VEC3",
      "name": "accessorPositions"
    },
    {
      "bufferView": 1,
      "byteOffset": 597216,
      "componentType": 5126,
      "count": 8,
      "type": "VEC3",
      "name": "accessorNormals"
    },
    {
      "bufferView": 2,
      "byteOffset": 199040,
      "componentType": 5126,
      "count": 8,
      "type": "VEC2",
      "name": "accessorUVs"
    }
  ],
  "bufferViews": [
    {
      "buffer": 0,
      "byteLength": 240000,
      "name": "bufferViewScalar"
    },
    {
      "buffer": 0,
      "byteOffset": 240000,
      "byteLength": 597312,
      "byteStride": 12,
      "name": "bufferViewFloatVec3"
    },
    {
      "buffer": 0,
      "byteOffset": 837312,
      "byteLength": 199104,
      "byteStride": 8,
      "name": "bufferViewFloatVec2"
    }
  ],
  "buffers": [
    {
      "uri": "MAIN_BUILDING_3F_桌椅.bin",
      "byteLength": 1036416
    }
  ],
  "materials": [
    {
      "pbrMetallicRoughness": {
        "baseColorFactor": [
          0.6745098,
          0.6745098,
          0.6745098,
          1.0
        ],
        "metallicFactor": 0.0,
        "roughnessFactor": 0.450053632
      },
      "name": "19 - Default"
    },
    {
      "pbrMetallicRoughness": {
        "baseColorFactor": [
          0.694117665,
          0.647058845,
          0.5411765,
          1.0
        ],
        "metallicFactor": 0.0,
        "roughnessFactor": 0.450053632
      },
      "name": "JYHFY"
    },
    {
      "pbrMetallicRoughness": {
        "baseColorFactor": [
          0.113725491,
          0.113725491,
          0.113725491,
          1.0
        ],
        "metallicFactor": 0.0,
        "roughnessFactor": 0.450053632
      },
      "name": "21 - Default"
    },
    {
      "pbrMetallicRoughness": {
        "baseColorTexture": {
          "index": 0
        },
        "metallicFactor": 0.0,
        "roughnessFactor": 0.450053632
      },
      "name": "23 - Default"
    }
  ],
  "textures": [
    {
      "sampler": 0,
      "source": 0,
      "name": "综合广告006.jpg"
    }
  ],
  "images": [
    {
      "uri": "综合广告006.jpg"
    }
  ],
  "samplers": [
    {
      "magFilter": 9729,
      "minFilter": 9987
    }
  ]
}